<svg xmlns="http://www.w3.org/2000/svg" xmlns:xlink="http://www.w3.org/1999/xlink" viewBox="0,0,256,256" width="48px" height="48px"><defs><linearGradient x1="32.012" y1="32.012" x2="15.881" y2="15.881" gradientUnits="userSpaceOnUse" id="color-1"><stop offset="0" stop-color="#ffffff"></stop><stop offset="0.242" stop-color="#f2f2f2"></stop><stop offset="1" stop-color="#cccccc"></stop></linearGradient><linearGradient x1="17.45" y1="17.45" x2="28.94" y2="28.94" gradientUnits="userSpaceOnUse" id="color-2"><stop offset="0" stop-color="#0d61a9"></stop><stop offset="0.363" stop-color="#0e5fa4"></stop><stop offset="0.78" stop-color="#135796"></stop><stop offset="1" stop-color="#16528c"></stop></linearGradient><linearGradient x1="5.326" y1="5.344" x2="38.082" y2="38.099" gradientUnits="userSpaceOnUse" id="color-3"><stop offset="0" stop-color="#889097"></stop><stop offset="0.331" stop-color="#848c94"></stop><stop offset="0.669" stop-color="#78828b"></stop><stop offset="1" stop-color="#64717c"></stop></linearGradient></defs><g fill="none" fill-rule="nonzero" stroke="none" stroke-width="1" stroke-linecap="butt" stroke-linejoin="miter" stroke-miterlimit="10" stroke-dasharray="" stroke-dashoffset="0" font-family="none" font-weight="none" font-size="none" text-anchor="none" style="mix-blend-mode: normal"><g transform="scale(5.33333,5.33333)"><circle cx="24" cy="24" r="11.5" fill="url(#color-1)"></circle><circle cx="24" cy="24" r="7" fill="url(#color-2)"></circle><path d="M43.407,19.243c-2.389,-0.029 -4.702,-1.274 -5.983,-3.493c-1.233,-2.136 -1.208,-4.649 -0.162,-6.693c-2.125,-1.887 -4.642,-3.339 -7.43,-4.188c-1.255,1.887 -3.397,3.131 -5.832,3.131c-2.435,0 -4.577,-1.244 -5.831,-3.131c-2.788,0.849 -5.305,2.301 -7.43,4.188c1.046,2.044 1.071,4.557 -0.162,6.693c-1.281,2.219 -3.594,3.464 -5.983,3.493c-0.374,1.527 -0.594,3.115 -0.594,4.757c0,1.284 0.133,2.535 0.364,3.752c2.469,-0.051 4.891,1.208 6.213,3.498c1.368,2.37 1.187,5.204 -0.22,7.345c2.082,1.947 4.573,3.456 7.34,4.375c1.13,-2.346 3.524,-3.97 6.303,-3.97c2.779,0 5.173,1.624 6.303,3.971c2.767,-0.919 5.258,-2.428 7.34,-4.375c-1.407,-2.141 -1.588,-4.975 -0.22,-7.345c1.322,-2.29 3.743,-3.549 6.213,-3.498c0.231,-1.218 0.364,-2.469 0.364,-3.753c0,-1.642 -0.22,-3.23 -0.593,-4.757zM24,34.5c-5.799,0 -10.5,-4.701 -10.5,-10.5c0,-5.799 4.701,-10.5 10.5,-10.5c5.799,0 10.5,4.701 10.5,10.5c0,5.799 -4.701,10.5 -10.5,10.5z" fill="url(#color-3)"></path></g></g></svg>